<?xml version="1.0" standalone="no"?>
<!DOCTYPE svg PUBLIC "-//W3C//DTD SVG 20010904//EN"
 "http://www.w3.org/TR/2001/REC-SVG-20010904/DTD/svg10.dtd">
<svg version="1.0" xmlns="http://www.w3.org/2000/svg"
 width="800.000000pt" height="800.000000pt" viewBox="0 0 800.000000 800.000000"
 preserveAspectRatio="xMidYMid meet">
<metadata>
Created by potrace 1.14, written by Peter Selinger 2001-2017
</metadata>
<g transform="translate(0.000000,800.000000) scale(0.100000,-0.100000)"
fill="#000000" stroke="none">
<path d="M3849 7725 c-97 -19 -183 -57 -337 -147 -75 -45 -157 -92 -182 -106
-25 -13 -85 -48 -135 -77 -79 -46 -138 -80 -250 -145 -16 -10 -106 -61 -200
-115 -93 -54 -213 -123 -265 -154 -52 -31 -106 -62 -120 -69 -14 -7 -43 -24
-65 -37 -22 -14 -47 -28 -55 -31 -8 -4 -26 -15 -40 -24 -14 -9 -50 -31 -80
-47 -30 -17 -95 -54 -145 -83 -49 -29 -103 -60 -120 -70 -16 -9 -147 -84 -290
-167 -143 -82 -334 -192 -424 -244 -140 -80 -178 -107 -250 -179 -89 -88 -136
-156 -178 -260 -55 -138 -54 -81 -50 -1805 l2 -1590 24 -70 c46 -138 98 -223
195 -320 80 -79 112 -102 266 -190 96 -55 179 -102 185 -104 5 -2 12 -7 15
-11 3 -4 34 -23 70 -42 36 -19 180 -102 320 -183 140 -81 282 -163 315 -182
33 -19 76 -43 95 -55 19 -11 168 -97 330 -191 162 -93 439 -253 615 -355 176
-101 336 -194 355 -205 240 -138 305 -166 434 -188 90 -15 252 -5 318 20 13 5
25 9 28 9 38 4 118 46 357 185 71 41 144 84 163 94 19 11 222 128 450 260 574
332 750 433 788 455 31 17 112 64 507 293 88 51 176 102 195 112 113 64 291
170 328 195 156 107 280 312 307 507 9 68 10 3103 1 3186 -13 116 -89 291
-162 375 -34 39 -80 86 -118 117 -24 21 -253 159 -376 226 -30 17 -82 47 -115
67 -33 20 -67 39 -75 43 -8 4 -31 17 -50 28 -37 23 -124 73 -750 434 -217 125
-462 267 -545 315 -82 48 -170 98 -195 112 -25 14 -115 66 -200 115 -444 257
-450 260 -560 290 -75 20 -249 24 -331 8z m256 -320 c45 -11 121 -51 320 -167
99 -57 270 -156 380 -220 110 -63 479 -276 820 -473 341 -197 641 -370 666
-384 47 -27 489 -283 523 -304 74 -45 138 -129 172 -226 l24 -66 -1 -1560 c0
-1527 0 -1561 -19 -1619 -26 -76 -71 -146 -125 -194 -23 -20 -116 -79 -206
-131 -90 -52 -265 -153 -389 -224 -297 -172 -339 -196 -380 -219 -19 -11 -192
-111 -385 -223 -192 -111 -411 -237 -485 -280 -74 -43 -148 -86 -165 -95 -16
-10 -165 -95 -330 -190 -165 -95 -305 -176 -310 -180 -26 -21 -118 -49 -177
-55 -79 -8 -163 7 -233 43 -27 13 -192 107 -365 207 -173 101 -331 192 -350
202 -36 20 -977 564 -1040 601 -19 11 -51 29 -70 40 -19 11 -145 83 -278 161
-134 77 -248 141 -252 141 -5 0 -10 3 -12 8 -2 4 -16 14 -33 23 -130 70 -257
152 -298 193 -54 55 -95 127 -112 201 -14 61 -17 3105 -3 3170 14 63 62 156
105 201 36 38 106 94 117 94 3 0 38 20 78 44 40 23 197 114 348 201 151 87
343 198 427 247 83 48 167 96 185 107 50 28 273 156 453 261 88 51 250 144
360 208 110 63 214 123 230 133 17 11 36 22 43 25 12 6 207 118 357 206 88 51
175 90 213 95 20 3 39 7 41 9 5 5 123 -3 156 -11z"/>
<path d="M3887 7044 c-26 -8 -62 -23 -80 -33 -18 -10 -86 -49 -152 -88 -189
-109 -512 -295 -730 -421 -110 -63 -238 -137 -285 -165 -47 -27 -101 -59 -120
-70 -19 -11 -109 -62 -200 -115 -91 -52 -282 -162 -425 -245 -503 -289 -503
-289 -559 -406 l-31 -66 -3 -1007 c-1 -555 0 -1008 2 -1008 3 0 178 172 389
383 433 431 428 428 562 423 111 -4 141 -25 382 -265 116 -116 214 -211 218
-211 4 0 200 193 436 429 454 454 476 472 599 503 109 29 252 5 353 -59 21
-13 301 -287 622 -608 322 -322 588 -585 593 -585 4 0 86 79 182 176 96 96
194 189 217 205 84 59 200 66 298 19 30 -15 123 -100 289 -267 134 -134 246
-241 248 -236 2 4 4 474 3 1043 -2 1145 2 1074 -66 1181 -49 78 -50 79 -424
295 -121 70 -245 140 -275 157 -30 16 -62 36 -71 43 -8 8 -18 14 -22 14 -3 0
-56 29 -117 65 -61 36 -114 65 -117 65 -4 0 -14 6 -22 14 -9 7 -47 31 -86 51
-38 21 -94 53 -123 72 -29 18 -54 33 -56 33 -4 0 -185 104 -319 184 -43 25
-80 46 -82 46 -1 0 -65 37 -141 81 -77 45 -164 95 -194 112 -30 16 -59 33 -65
37 -5 4 -30 19 -55 32 -25 14 -101 58 -170 99 -69 40 -151 81 -183 91 -70 21
-154 22 -220 2z"/>
<path d="M3959 4378 c-29 -7 -236 -209 -1124 -1098 -599 -599 -1087 -1091
-1085 -1093 3 -2 82 -48 175 -102 94 -54 269 -155 390 -225 121 -70 238 -138
260 -150 22 -12 78 -45 125 -73 47 -27 110 -64 140 -80 30 -17 79 -45 108 -64
29 -18 55 -33 59 -33 3 0 29 -14 57 -32 28 -17 67 -40 86 -51 37 -20 335 -192
550 -317 153 -88 205 -108 296 -108 106 0 118 5 469 208 17 9 75 43 130 75 55
32 156 90 225 130 69 40 141 82 160 92 19 11 91 53 160 93 69 40 145 84 170
98 25 14 140 80 255 147 116 67 287 166 380 220 94 54 186 107 205 118 19 11
50 28 69 37 l34 17 -1086 1086 c-597 597 -1094 1090 -1104 1095 -32 16 -67 20
-104 10z"/>
<path d="M2203 3860 c-15 -9 -225 -214 -466 -455 l-438 -438 4 -191 c2 -105 6
-200 9 -211 23 -74 48 -113 118 -182 l34 -34 586 586 587 587 -175 174 c-96
96 -180 174 -186 175 -6 0 -18 2 -28 4 -9 2 -29 -5 -45 -15z"/>
<path d="M5985 3500 c-11 -5 -85 -73 -164 -153 l-143 -145 426 -426 426 -427
48 48 c89 91 118 179 117 361 l-1 113 -315 315 c-326 326 -338 336 -394 314z"/>
</g>
</svg>
